# xmcd CD database file
#
# Track frame offsets:
#	150
#	25901
#	50815
#	80713
#	115371
#	147193
#	176245
#	204507
#
# Disc length: 3260 seconds
#
# Revision: 0
# Processed by: cddbd v1.5.1PL0 Copyright (c) Steve Scherf et al.
# Submitted via: CDex 1.51
#
DISCID=760cba08
DTITLE=Reuben Wilson - Fun House
DYEAR=2005
DGENRE=Jazz
TTITLE0=Easy Talk
TTITLE1=Fun House
TTITLE2=For The Love Of You
TTITLE3=Ronnies Bonnie
TTITLE4=Love Time
TTITLE5=Sweet Feet
TTITLE6=Minor Yours
TTITLE7=Loft Funk
EXTD=YEAR: 2005
EXTT0=
EXTT1=
EXTT2=
EXTT3=
EXTT4=
EXTT5=
EXTT6=
EXTT7=
PLAYORDER=
